<svg width="86" height="26" viewBox="0 0 86 26" fill="none" xmlns="http://www.w3.org/2000/svg">
<rect x="0.25" y="0.25" width="85.5" height="25.5" rx="3.75" fill="white"/>
<rect x="0.25" y="0.25" width="85.5" height="25.5" rx="3.75" stroke="#FFBE0B" stroke-width="0.5"/>
<path d="M7 8.5H17C17.6 8.5 18 8.95 18 9.625C18 10.3 17.6 10.75 17 10.75H7C6.4 10.75 6 10.3 6 9.625C6 8.95 6.4 8.5 7 8.5ZM7 15.25H17C17.6 15.25 18 15.7 18 16.375C18 17.05 17.6 17.5 17 17.5H7C6.4 17.5 6 17.05 6 16.375C6 15.7 6.4 15.25 7 15.25Z" fill="#FFBE0B"/>
<path d="M24.768 8.108L26.304 7.916V14.12C26.304 14.76 26.4 15.24 26.592 15.56C26.792 15.88 27.116 16.04 27.564 16.04C27.964 16.04 28.268 15.896 28.476 15.608C28.692 15.32 28.8 14.912 28.8 14.384C28.8 13.984 28.748 13.644 28.644 13.364C28.54 13.076 28.384 12.76 28.176 12.416C27.984 12.072 27.84 11.78 27.744 11.54C27.648 11.292 27.6 10.996 27.6 10.652H29.124C29.132 10.9 29.18 11.124 29.268 11.324C29.356 11.524 29.484 11.768 29.652 12.056C29.884 12.456 30.06 12.824 30.18 13.16C30.308 13.488 30.372 13.896 30.372 14.384C30.372 14.928 30.264 15.412 30.048 15.836C29.832 16.26 29.512 16.592 29.088 16.832C28.664 17.072 28.152 17.192 27.552 17.192C26.64 17.192 25.948 16.936 25.476 16.424C25.004 15.904 24.768 15.14 24.768 14.132V8.108ZM34.6823 10.652C34.6903 10.924 34.7623 11.176 34.8983 11.408C35.0423 11.64 35.2583 11.924 35.5463 12.26C35.7943 12.564 35.9943 12.828 36.1463 13.052C36.2983 13.268 36.4263 13.524 36.5303 13.82C36.6423 14.108 36.6983 14.428 36.6983 14.78C36.6983 15.26 36.5823 15.684 36.3503 16.052C36.1183 16.412 35.7983 16.692 35.3903 16.892C34.9823 17.092 34.5143 17.192 33.9863 17.192C33.4263 17.192 32.9463 17.088 32.5463 16.88C32.1463 16.664 31.8423 16.376 31.6343 16.016C31.4263 15.656 31.3223 15.26 31.3223 14.828C31.3223 14.348 31.4343 13.904 31.6583 13.496L32.9903 13.844C32.8943 14.132 32.8463 14.456 32.8463 14.816C32.8463 15.184 32.9463 15.48 33.1463 15.704C33.3463 15.92 33.6263 16.028 33.9863 16.028C34.3623 16.028 34.6423 15.916 34.8263 15.692C35.0103 15.46 35.1023 15.16 35.1023 14.792C35.1023 14.448 35.0303 14.152 34.8863 13.904C34.7423 13.648 34.5183 13.34 34.2143 12.98C33.9743 12.7 33.7863 12.464 33.6503 12.272C33.5143 12.08 33.3943 11.848 33.2903 11.576C33.1943 11.304 33.1463 10.996 33.1463 10.652H34.6823ZM41.6228 7.916C42.1748 7.916 42.6268 8.088 42.9788 8.432C43.3308 8.776 43.5068 9.248 43.5068 9.848V14.096C43.5068 15.072 43.2708 15.832 42.7988 16.376C42.3268 16.92 41.6348 17.192 40.7228 17.192C39.7948 17.192 39.0868 16.916 38.5988 16.364C38.1108 15.812 37.8668 15.04 37.8668 14.048C37.8668 13.488 37.9668 12.972 38.1668 12.5C38.3668 12.02 38.6548 11.64 39.0308 11.36C39.4148 11.072 39.8628 10.928 40.3748 10.928C40.9828 10.928 41.5148 11.164 41.9708 11.636V9.8C41.9708 9.288 41.7508 9.032 41.3108 9.032C41.1028 9.032 40.9348 9.092 40.8068 9.212C40.6868 9.332 40.6268 9.504 40.6268 9.728V10.184L39.2588 10.28V9.836C39.2588 9.316 39.0508 9.056 38.6348 9.056C38.4508 9.056 38.2308 9.112 37.9748 9.224L37.6147 8.204C37.9428 8.012 38.3028 7.916 38.6948 7.916C38.9988 7.916 39.2708 7.996 39.5108 8.156C39.7508 8.308 39.9148 8.572 40.0028 8.948C40.1228 8.58 40.3308 8.316 40.6268 8.156C40.9228 7.996 41.2548 7.916 41.6228 7.916ZM40.7228 16.028C41.5548 16.028 41.9708 15.372 41.9708 14.06V12.764C41.7948 12.54 41.6068 12.372 41.4068 12.26C41.2068 12.14 40.9788 12.08 40.7228 12.08C40.3388 12.08 40.0348 12.252 39.8108 12.596C39.5868 12.94 39.4748 13.424 39.4748 14.048C39.4748 14.736 39.5748 15.24 39.7748 15.56C39.9828 15.872 40.2988 16.028 40.7228 16.028ZM48.5094 10.472C49.1014 10.472 49.5734 10.648 49.9254 11C50.2854 11.352 50.4654 11.844 50.4654 12.476V16.964C50.4654 17.492 50.3534 17.956 50.1294 18.356C49.9054 18.764 49.5814 19.08 49.1574 19.304C48.7414 19.528 48.2454 19.64 47.6694 19.64H47.6574C47.0734 19.64 46.5774 19.524 46.1694 19.292C45.7614 19.068 45.4534 18.764 45.2454 18.38C45.0454 17.996 44.9454 17.568 44.9454 17.096C44.9454 16.56 45.0734 16.036 45.3294 15.524L46.6734 15.86C46.5374 16.268 46.4694 16.684 46.4694 17.108C46.4694 17.532 46.5694 17.864 46.7694 18.104C46.9774 18.352 47.2734 18.476 47.6574 18.476C48.0814 18.476 48.3974 18.34 48.6054 18.068C48.8214 17.796 48.9294 17.416 48.9294 16.928V12.464C48.9294 11.904 48.7094 11.624 48.2694 11.624C47.8214 11.624 47.5974 11.888 47.5974 12.416V13.832L46.1934 13.988V12.356C46.1934 11.948 46.0134 11.744 45.6534 11.744L45.3894 11.756C45.2774 11.772 45.1814 11.78 45.1014 11.78C44.8534 11.78 44.6494 11.724 44.4894 11.612L44.6574 10.496C44.8094 10.544 44.9454 10.568 45.0654 10.568C45.1854 10.568 45.2974 10.556 45.4014 10.532C45.6654 10.508 45.8174 10.496 45.8574 10.496C46.1134 10.496 46.3414 10.568 46.5414 10.712C46.7494 10.856 46.8934 11.108 46.9734 11.468C47.0934 11.108 47.2814 10.852 47.5374 10.7C47.8014 10.548 48.1254 10.472 48.5094 10.472ZM55.0027 10.652C55.0107 10.924 55.0827 11.176 55.2187 11.408C55.3627 11.64 55.5787 11.924 55.8667 12.26C56.1147 12.564 56.3147 12.828 56.4667 13.052C56.6187 13.268 56.7467 13.524 56.8507 13.82C56.9627 14.108 57.0187 14.428 57.0187 14.78C57.0187 15.26 56.9027 15.684 56.6707 16.052C56.4387 16.412 56.1187 16.692 55.7107 16.892C55.3027 17.092 54.8347 17.192 54.3067 17.192C53.7467 17.192 53.2667 17.088 52.8667 16.88C52.4667 16.664 52.1627 16.376 51.9547 16.016C51.7467 15.656 51.6427 15.26 51.6427 14.828C51.6427 14.348 51.7547 13.904 51.9787 13.496L53.3107 13.844C53.2147 14.132 53.1667 14.456 53.1667 14.816C53.1667 15.184 53.2667 15.48 53.4667 15.704C53.6667 15.92 53.9467 16.028 54.3067 16.028C54.6827 16.028 54.9627 15.916 55.1467 15.692C55.3307 15.46 55.4227 15.16 55.4227 14.792C55.4227 14.448 55.3507 14.152 55.2067 13.904C55.0627 13.648 54.8387 13.34 54.5347 12.98C54.2947 12.7 54.1067 12.464 53.9707 12.272C53.8347 12.08 53.7147 11.848 53.6107 11.576C53.5147 11.304 53.4667 10.996 53.4667 10.652H55.0027ZM66.9711 10.472C67.4191 10.472 67.8191 10.58 68.1711 10.796C68.5231 11.004 68.7991 11.32 68.9991 11.744C69.2071 12.16 69.3111 12.676 69.3111 13.292C69.3111 13.916 69.2631 14.468 69.1671 14.948C69.0711 15.42 68.9271 15.86 68.7351 16.268L67.3911 15.872C67.5191 15.48 67.6111 15.088 67.6671 14.696C67.7231 14.304 67.7511 13.856 67.7511 13.352C67.7511 12.736 67.6591 12.296 67.4751 12.032C67.2991 11.768 67.0711 11.636 66.7911 11.636C66.5431 11.636 66.3431 11.724 66.1911 11.9C66.0471 12.076 65.9751 12.34 65.9751 12.692V14.888L64.5351 15.032V12.692C64.5351 12.332 64.4631 12.068 64.3191 11.9C64.1751 11.724 63.9751 11.636 63.7191 11.636C63.4631 11.636 63.2591 11.724 63.1071 11.9C62.9631 12.068 62.8911 12.332 62.8911 12.692V14.864L61.4511 15.032V12.692C61.4511 12.34 61.3791 12.076 61.2351 11.9C61.0911 11.724 60.8911 11.636 60.6351 11.636C59.9951 11.636 59.6751 12.268 59.6751 13.532C59.6751 14.236 59.8271 14.808 60.1311 15.248C60.4431 15.688 60.8191 16.024 61.2591 16.256C61.7071 16.48 62.2551 16.696 62.9031 16.904C63.6711 17.144 64.3351 17.404 64.8951 17.684C65.4631 17.972 65.9191 18.348 66.2631 18.812L65.2911 19.64C64.8911 19.184 64.4511 18.84 63.9711 18.608C63.4991 18.384 62.9671 18.272 62.3751 18.272C61.9351 18.272 61.5311 18.332 61.1631 18.452C60.8031 18.58 60.4271 18.76 60.0351 18.992L59.6511 17.804C60.1871 17.548 60.7951 17.42 61.4751 17.42C60.4911 17.196 59.6831 16.76 59.0511 16.112C58.4271 15.456 58.1151 14.572 58.1151 13.46C58.1151 12.46 58.3231 11.712 58.7391 11.216C59.1631 10.72 59.7231 10.472 60.4191 10.472C61.3551 10.472 61.9351 10.92 62.1591 11.816C62.2391 11.368 62.4111 11.032 62.6751 10.808C62.9471 10.584 63.2911 10.472 63.7071 10.472C64.5631 10.472 65.0871 10.92 65.2791 11.816C65.3671 11.376 65.5551 11.044 65.8431 10.82C66.1391 10.588 66.5151 10.472 66.9711 10.472ZM71.2103 17C70.9863 16.464 70.8063 15.916 70.6703 15.356C70.5423 14.796 70.4783 14.188 70.4783 13.532C70.4783 12.5 70.6903 11.732 71.1143 11.228C71.5463 10.724 72.1023 10.472 72.7823 10.472C73.2783 10.472 73.6703 10.588 73.9583 10.82C74.2543 11.044 74.4623 11.392 74.5823 11.864C74.6783 11.408 74.8743 11.064 75.1703 10.832C75.4743 10.592 75.8623 10.472 76.3343 10.472C77.0223 10.472 77.5823 10.728 78.0143 11.24C78.4463 11.752 78.6623 12.516 78.6623 13.532C78.6623 14.188 78.5943 14.8 78.4583 15.368C78.3303 15.928 78.1583 16.472 77.9423 17H76.4423C76.6743 16.336 76.8463 15.74 76.9583 15.212C77.0703 14.676 77.1263 14.136 77.1263 13.592C77.1263 12.288 76.7903 11.636 76.1183 11.636C75.5743 11.636 75.3023 12.028 75.3023 12.812V14.9L73.8623 15.068V12.812C73.8623 12.364 73.7903 12.056 73.6463 11.888C73.5103 11.72 73.3063 11.636 73.0343 11.636C72.7063 11.636 72.4583 11.792 72.2903 12.104C72.1223 12.416 72.0383 12.908 72.0383 13.58C72.0383 14.132 72.0903 14.676 72.1943 15.212C72.3063 15.748 72.4743 16.344 72.6983 17H71.2103Z" fill="#FFBE0B"/>
</svg>
